<svg width="656" height="193" viewBox="0 0 656 193" fill="none" xmlns="http://www.w3.org/2000/svg">
<path d="M1.92 89L25.056 19.88H36.96L60.096 89H51.216L29.568 24.872H32.256L10.8 89H1.92ZM13.056 72.824V64.808H48.96V72.824H13.056ZM65.8087 89V19.88H74.3527V50.36H110.737V19.88H119.281V89H110.737V58.472H74.3527V89H65.8087ZM126.506 100.52V80.888C129.034 80.888 131.082 80.248 132.65 78.968C134.25 77.688 135.498 75.96 136.394 73.784C137.29 71.576 137.962 69.096 138.41 66.344C138.89 63.592 139.274 60.744 139.562 57.8C139.978 53.64 140.314 49.608 140.57 45.704C140.858 41.8 141.114 37.752 141.338 33.56C141.562 29.368 141.818 24.792 142.106 19.832L185.546 19.88V80.888H190.586V100.52H182.042V89H135.05V100.52H126.506ZM141.482 80.888H177.002V27.992L150.026 27.944C149.834 31.656 149.642 35.224 149.45 38.648C149.29 42.04 149.082 45.464 148.826 48.92C148.57 52.376 148.25 56.04 147.866 59.912C147.514 63.496 147.114 66.6 146.666 69.224C146.25 71.816 145.642 74.056 144.842 75.944C144.042 77.8 142.922 79.448 141.482 80.888ZM198.236 89V19.88H225.548C226.22 19.88 227.02 19.912 227.948 19.976C228.876 20.008 229.772 20.104 230.636 20.264C234.38 20.84 237.516 22.12 240.044 24.104C242.604 26.088 244.524 28.6 245.804 31.64C247.084 34.648 247.724 37.992 247.724 41.672C247.724 45.32 247.068 48.664 245.756 51.704C244.476 54.712 242.556 57.224 239.996 59.24C237.468 61.224 234.348 62.504 230.636 63.08C229.772 63.208 228.876 63.304 227.948 63.368C227.02 63.432 226.22 63.464 225.548 63.464H206.78V89H198.236ZM206.78 55.352H225.26C225.868 55.352 226.556 55.32 227.324 55.256C228.124 55.192 228.876 55.08 229.58 54.92C231.788 54.408 233.58 53.48 234.956 52.136C236.364 50.76 237.388 49.16 238.028 47.336C238.668 45.48 238.988 43.592 238.988 41.672C238.988 39.752 238.668 37.88 238.028 36.056C237.388 34.2 236.364 32.584 234.956 31.208C233.58 29.832 231.788 28.904 229.58 28.424C228.876 28.232 228.124 28.12 227.324 28.088C226.556 28.024 225.868 27.992 225.26 27.992H206.78V55.352ZM254.419 89V19.88H298.099V27.992H262.963V49.64H292.339V57.752H262.963V80.888H298.099V89H254.419ZM306.758 89V19.88H315.398V73.88L351.446 19.88H360.086V89H351.446V34.952L315.398 89H306.758ZM333.782 13.832C331.35 13.832 329.142 13.24 327.158 12.056C325.206 10.872 323.638 9.304 322.454 7.352C321.27 5.36799 320.678 3.15999 320.678 0.727995H327.59C327.59 2.42399 328.198 3.88 329.414 5.096C330.63 6.312 332.086 6.92 333.782 6.92C335.51 6.92 336.966 6.312 338.15 5.096C339.366 3.88 339.974 2.42399 339.974 0.727995H346.886C346.886 3.15999 346.294 5.36799 345.11 7.352C343.958 9.304 342.374 10.872 340.358 12.056C338.374 13.24 336.182 13.832 333.782 13.832ZM386.006 62.264V55.208H449.366V62.264H386.006ZM24.528 191V129.992H0.96V121.88H56.64V129.992H33.072V191H24.528ZM54.7275 191L77.8635 121.88H89.7675L112.904 191H104.024L82.3755 126.872H85.0635L63.6075 191H54.7275ZM65.8635 174.824V166.808H101.768V174.824H65.8635ZM118.616 191V121.88H162.488V129.992H127.16V148.376H145.928C146.6 148.376 147.4 148.408 148.328 148.472C149.256 148.504 150.152 148.584 151.016 148.712C154.664 149.16 157.752 150.376 160.28 152.36C162.84 154.312 164.776 156.792 166.088 159.8C167.432 162.808 168.104 166.104 168.104 169.688C168.104 173.24 167.448 176.52 166.136 179.528C164.824 182.536 162.888 185.032 160.328 187.016C157.8 188.968 154.696 190.184 151.016 190.664C150.152 190.76 149.256 190.84 148.328 190.904C147.4 190.968 146.6 191 145.928 191H118.616ZM127.16 182.888H145.64C146.248 182.888 146.936 182.856 147.704 182.792C148.504 182.728 149.256 182.632 149.96 182.504C153.288 181.832 155.688 180.248 157.16 177.752C158.632 175.224 159.368 172.536 159.368 169.688C159.368 166.776 158.632 164.088 157.16 161.624C155.688 159.128 153.288 157.544 149.96 156.872C149.256 156.712 148.504 156.616 147.704 156.584C146.936 156.52 146.248 156.488 145.64 156.488H127.16V182.888ZM185.599 191L193.855 173.864L169.519 121.88H179.071L198.319 164.744L217.999 121.88H227.119L194.863 191H185.599ZM232.2 191V121.88H259.512C260.184 121.88 260.984 121.912 261.912 121.976C262.84 122.008 263.736 122.104 264.6 122.264C268.344 122.84 271.48 124.12 274.008 126.104C276.568 128.088 278.488 130.6 279.768 133.64C281.048 136.648 281.688 139.992 281.688 143.672C281.688 147.32 281.032 150.664 279.72 153.704C278.44 156.712 276.52 159.224 273.96 161.24C271.432 163.224 268.312 164.504 264.6 165.08C263.736 165.208 262.84 165.304 261.912 165.368C260.984 165.432 260.184 165.464 259.512 165.464H240.744V191H232.2ZM240.744 157.352H259.224C259.832 157.352 260.52 157.32 261.288 157.256C262.088 157.192 262.84 157.08 263.544 156.92C265.752 156.408 267.544 155.48 268.92 154.136C270.328 152.76 271.352 151.16 271.992 149.336C272.632 147.48 272.952 145.592 272.952 143.672C272.952 141.752 272.632 139.88 271.992 138.056C271.352 136.2 270.328 134.584 268.92 133.208C267.544 131.832 265.752 130.904 263.544 130.424C262.84 130.232 262.088 130.12 261.288 130.088C260.52 130.024 259.832 129.992 259.224 129.992H240.744V157.352ZM341.711 191H333.071V136.952L297.023 191H288.383V121.88H297.023V175.88L333.071 121.88H341.711V191ZM352.253 191V121.88H360.797V152.36H397.181V121.88H405.725V191H397.181V160.472H360.797V191H352.253ZM444.726 192.44C437.846 192.44 432.006 190.92 427.206 187.88C422.406 184.84 418.742 180.616 416.214 175.208C413.718 169.8 412.47 163.544 412.47 156.44C412.47 149.336 413.718 143.08 416.214 137.672C418.742 132.264 422.406 128.04 427.206 125C432.006 121.96 437.846 120.44 444.726 120.44C452.726 120.44 459.302 122.472 464.454 126.536C469.638 130.6 473.206 136.072 475.158 142.952L466.47 145.256C465.062 140.104 462.55 136.04 458.934 133.064C455.318 130.088 450.582 128.6 444.726 128.6C439.574 128.6 435.286 129.768 431.862 132.104C428.438 134.44 425.862 137.704 424.134 141.896C422.406 146.056 421.526 150.904 421.494 156.44C421.462 161.944 422.31 166.792 424.038 170.984C425.766 175.144 428.358 178.408 431.814 180.776C435.27 183.112 439.574 184.28 444.726 184.28C450.582 184.28 455.318 182.792 458.934 179.816C462.55 176.808 465.062 172.744 466.47 167.624L475.158 169.928C473.206 176.776 469.638 182.248 464.454 186.344C459.302 190.408 452.726 192.44 444.726 192.44ZM482.805 191V121.88H491.349V154.328L521.589 121.88H532.341L500.949 155.432L534.789 191H523.749L491.349 157.208V191H482.805ZM591.941 191H583.301V136.952L547.253 191H538.613V121.88H547.253V175.88L583.301 121.88H591.941V191ZM602.483 191V121.88H611.123V175.88L647.171 121.88H655.811V191H647.171V136.952L611.123 191H602.483ZM629.507 115.832C627.075 115.832 624.867 115.24 622.883 114.056C620.931 112.872 619.363 111.304 618.179 109.352C616.995 107.368 616.403 105.16 616.403 102.728H623.315C623.315 104.424 623.923 105.88 625.139 107.096C626.355 108.312 627.811 108.92 629.507 108.92C631.235 108.92 632.691 108.312 633.875 107.096C635.091 105.88 635.699 104.424 635.699 102.728H642.611C642.611 105.16 642.019 107.368 640.835 109.352C639.683 111.304 638.099 112.872 636.083 114.056C634.099 115.24 631.907 115.832 629.507 115.832Z" fill="black"/>
</svg>
