<svg width="219" height="61" viewBox="0 0 219 61" fill="none" xmlns="http://www.w3.org/2000/svg">
<path d="M0.64 30L8.352 6.96H12.32L20.032 30H17.072L9.856 8.624H10.752L3.6 30H0.64ZM4.352 24.608V21.936H16.32V24.608H4.352ZM21.9363 30V6.96H24.7843V17.12H36.9123V6.96H39.7603V30H36.9123V19.824H24.7843V30H21.9363ZM42.1688 33.84V27.296C43.0114 27.296 43.6941 27.0827 44.2168 26.656C44.7501 26.2293 45.1661 25.6533 45.4648 24.928C45.7634 24.192 45.9874 23.3653 46.1368 22.448C46.2968 21.5307 46.4248 20.5813 46.5208 19.6C46.6594 18.2133 46.7714 16.8693 46.8568 15.568C46.9528 14.2667 47.0381 12.9173 47.1128 11.52C47.1874 10.1227 47.2728 8.59733 47.3688 6.944L61.8488 6.96V27.296H63.5288V33.84H60.6808V30H45.0168V33.84H42.1688ZM47.1608 27.296H59.0008V9.664L50.0088 9.648C49.9448 10.8853 49.8808 12.0747 49.8168 13.216C49.7634 14.3467 49.6941 15.488 49.6088 16.64C49.5234 17.792 49.4168 19.0133 49.2888 20.304C49.1714 21.4987 49.0381 22.5333 48.8888 23.408C48.7501 24.272 48.5474 25.0187 48.2808 25.648C48.0141 26.2667 47.6408 26.816 47.1608 27.296ZM66.0787 30V6.96H75.1827C75.4067 6.96 75.6734 6.97067 75.9827 6.992C76.2921 7.00267 76.5907 7.03467 76.8787 7.088C78.1267 7.28 79.1721 7.70667 80.0147 8.368C80.8681 9.02933 81.5081 9.86667 81.9347 10.88C82.3614 11.8827 82.5747 12.9973 82.5747 14.224C82.5747 15.44 82.3561 16.5547 81.9187 17.568C81.4921 18.5707 80.8521 19.408 79.9987 20.08C79.1561 20.7413 78.1161 21.168 76.8787 21.36C76.5907 21.4027 76.2921 21.4347 75.9827 21.456C75.6734 21.4773 75.4067 21.488 75.1827 21.488H68.9267V30H66.0787ZM68.9267 18.784H75.0867C75.2894 18.784 75.5187 18.7733 75.7747 18.752C76.0414 18.7307 76.2921 18.6933 76.5267 18.64C77.2627 18.4693 77.8601 18.16 78.3187 17.712C78.7881 17.2533 79.1294 16.72 79.3427 16.112C79.5561 15.4933 79.6627 14.864 79.6627 14.224C79.6627 13.584 79.5561 12.96 79.3427 12.352C79.1294 11.7333 78.7881 11.1947 78.3187 10.736C77.8601 10.2773 77.2627 9.968 76.5267 9.808C76.2921 9.744 76.0414 9.70667 75.7747 9.696C75.5187 9.67467 75.2894 9.664 75.0867 9.664H68.9267V18.784ZM84.8063 30V6.96H99.3663V9.664H87.6543V16.88H97.4463V19.584H87.6543V27.296H99.3663V30H84.8063ZM102.252 30V6.96H105.132V24.96L117.148 6.96H120.028V30H117.148V11.984L105.132 30H102.252ZM111.26 4.944C110.45 4.944 109.714 4.74667 109.052 4.352C108.402 3.95733 107.879 3.43467 107.484 2.784C107.09 2.12266 106.892 1.38666 106.892 0.575998H109.196C109.196 1.14133 109.399 1.62667 109.804 2.032C110.21 2.43733 110.695 2.64 111.26 2.64C111.836 2.64 112.322 2.43733 112.716 2.032C113.122 1.62667 113.324 1.14133 113.324 0.575998H115.628C115.628 1.38666 115.431 2.12266 115.036 2.784C114.652 3.43467 114.124 3.95733 113.452 4.352C112.791 4.74667 112.06 4.944 111.26 4.944ZM128.669 21.088V18.736H149.789V21.088H128.669ZM8.176 60V39.664H0.32V36.96H18.88V39.664H11.024V60H8.176ZM18.2425 60L25.9545 36.96H29.9225L37.6345 60H34.6745L27.4585 38.624H28.3545L21.2025 60H18.2425ZM21.9545 54.608V51.936H33.9225V54.608H21.9545ZM39.5388 60V36.96H54.1628V39.664H42.3868V45.792H48.6428C48.8668 45.792 49.1334 45.8027 49.4428 45.824C49.7521 45.8347 50.0508 45.8613 50.3388 45.904C51.5548 46.0533 52.5841 46.4587 53.4268 47.12C54.2801 47.7707 54.9254 48.5973 55.3628 49.6C55.8108 50.6027 56.0348 51.7013 56.0348 52.896C56.0348 54.08 55.8161 55.1733 55.3788 56.176C54.9414 57.1787 54.2961 58.0107 53.4428 58.672C52.6001 59.3227 51.5654 59.728 50.3388 59.888C50.0508 59.92 49.7521 59.9467 49.4428 59.968C49.1334 59.9893 48.8668 60 48.6428 60H39.5388ZM42.3868 57.296H48.5468C48.7494 57.296 48.9788 57.2853 49.2348 57.264C49.5014 57.2427 49.7521 57.2107 49.9868 57.168C51.0961 56.944 51.8961 56.416 52.3868 55.584C52.8774 54.7413 53.1228 53.8453 53.1228 52.896C53.1228 51.9253 52.8774 51.0293 52.3868 50.208C51.8961 49.376 51.0961 48.848 49.9868 48.624C49.7521 48.5707 49.5014 48.5387 49.2348 48.528C48.9788 48.5067 48.7494 48.496 48.5468 48.496H42.3868V57.296ZM61.8662 60L64.6182 54.288L56.5062 36.96H59.6902L66.1062 51.248L72.6663 36.96H75.7062L64.9542 60H61.8662ZM77.4 60V36.96H86.504C86.728 36.96 86.9947 36.9707 87.304 36.992C87.6133 37.0027 87.912 37.0347 88.2 37.088C89.448 37.28 90.4933 37.7067 91.336 38.368C92.1893 39.0293 92.8293 39.8667 93.256 40.88C93.6827 41.8827 93.896 42.9973 93.896 44.224C93.896 45.44 93.6773 46.5547 93.24 47.568C92.8133 48.5707 92.1733 49.408 91.32 50.08C90.4773 50.7413 89.4373 51.168 88.2 51.36C87.912 51.4027 87.6133 51.4347 87.304 51.456C86.9947 51.4773 86.728 51.488 86.504 51.488H80.248V60H77.4ZM80.248 48.784H86.408C86.6107 48.784 86.84 48.7733 87.096 48.752C87.3627 48.7307 87.6133 48.6933 87.848 48.64C88.584 48.4693 89.1813 48.16 89.64 47.712C90.1093 47.2533 90.4507 46.72 90.664 46.112C90.8773 45.4933 90.984 44.864 90.984 44.224C90.984 43.584 90.8773 42.96 90.664 42.352C90.4507 41.7333 90.1093 41.1947 89.64 40.736C89.1813 40.2773 88.584 39.968 87.848 39.808C87.6133 39.744 87.3627 39.7067 87.096 39.696C86.84 39.6747 86.6107 39.664 86.408 39.664H80.248V48.784ZM113.903 60H111.023V41.984L99.0075 60H96.1275V36.96H99.0075V54.96L111.023 36.96H113.903V60ZM117.417 60V36.96H120.265V47.12H132.393V36.96H135.241V60H132.393V49.824H120.265V60H117.417ZM148.242 60.48C145.949 60.48 144.002 59.9733 142.402 58.96C140.802 57.9467 139.581 56.5387 138.738 54.736C137.906 52.9333 137.49 50.848 137.49 48.48C137.49 46.112 137.906 44.0267 138.738 42.224C139.581 40.4213 140.802 39.0133 142.402 38C144.002 36.9867 145.949 36.48 148.242 36.48C150.909 36.48 153.101 37.1573 154.818 38.512C156.546 39.8667 157.735 41.6907 158.386 43.984L155.49 44.752C155.021 43.0347 154.183 41.68 152.978 40.688C151.773 39.696 150.194 39.2 148.242 39.2C146.525 39.2 145.095 39.5893 143.954 40.368C142.813 41.1467 141.954 42.2347 141.378 43.632C140.802 45.0187 140.509 46.6347 140.498 48.48C140.487 50.3147 140.77 51.9307 141.346 53.328C141.922 54.7147 142.786 55.8027 143.938 56.592C145.09 57.3707 146.525 57.76 148.242 57.76C150.194 57.76 151.773 57.264 152.978 56.272C154.183 55.2693 155.021 53.9147 155.49 52.208L158.386 52.976C157.735 55.2587 156.546 57.0827 154.818 58.448C153.101 59.8027 150.909 60.48 148.242 60.48ZM160.935 60V36.96H163.783V47.776L173.863 36.96H177.447L166.983 48.144L178.263 60H174.583L163.783 48.736V60H160.935ZM197.314 60H194.434V41.984L182.418 60H179.538V36.96H182.418V54.96L194.434 36.96H197.314V60ZM200.827 60V36.96H203.707V54.96L215.723 36.96H218.603V60H215.723V41.984L203.707 60H200.827ZM209.835 34.944C209.025 34.944 208.289 34.7467 207.627 34.352C206.977 33.9573 206.454 33.4347 206.059 32.784C205.665 32.1227 205.467 31.3867 205.467 30.576H207.771C207.771 31.1413 207.974 31.6267 208.379 32.032C208.785 32.4373 209.27 32.64 209.835 32.64C210.411 32.64 210.897 32.4373 211.291 32.032C211.697 31.6267 211.899 31.1413 211.899 30.576H214.203C214.203 31.3867 214.006 32.1227 213.611 32.784C213.227 33.4347 212.699 33.9573 212.027 34.352C211.366 34.7467 210.635 34.944 209.835 34.944Z" fill="white"/>
</svg>
