<svg width="219" height="61" viewBox="0 0 219 61" fill="none" xmlns="http://www.w3.org/2000/svg">
<path d="M0.64 30L8.352 6.96H12.32L20.032 30H17.072L9.856 8.624H10.752L3.6 30H0.64ZM4.352 24.608V21.936H16.32V24.608H4.352ZM21.9675 30V6.96H24.8155V17.12H36.9435V6.96H39.7915V30H36.9435V19.824H24.8155V30H21.9675ZM42.2 33.84V27.296C43.0427 27.296 43.7253 27.0827 44.248 26.656C44.7813 26.2293 45.1973 25.6533 45.496 24.928C45.7947 24.192 46.0187 23.3653 46.168 22.448C46.328 21.5307 46.456 20.5813 46.552 19.6C46.6907 18.2133 46.8027 16.8693 46.888 15.568C46.984 14.2667 47.0693 12.9173 47.144 11.52C47.2187 10.1227 47.304 8.59733 47.4 6.944L61.88 6.96V27.296H63.56V33.84H60.712V30H45.048V33.84H42.2ZM47.192 27.296H59.032V9.664L50.04 9.648C49.976 10.8853 49.912 12.0747 49.848 13.216C49.7947 14.3467 49.7253 15.488 49.64 16.64C49.5547 17.792 49.448 19.0133 49.32 20.304C49.2027 21.4987 49.0693 22.5333 48.92 23.408C48.7813 24.272 48.5787 25.0187 48.312 25.648C48.0453 26.2667 47.672 26.816 47.192 27.296ZM66.11 30V6.96H75.214C75.438 6.96 75.7047 6.97067 76.014 6.992C76.3233 7.00267 76.622 7.03467 76.91 7.088C78.158 7.28 79.2033 7.70667 80.046 8.368C80.8993 9.02933 81.5393 9.86667 81.966 10.88C82.3927 11.8827 82.606 12.9973 82.606 14.224C82.606 15.44 82.3873 16.5547 81.95 17.568C81.5233 18.5707 80.8833 19.408 80.03 20.08C79.1873 20.7413 78.1473 21.168 76.91 21.36C76.622 21.4027 76.3233 21.4347 76.014 21.456C75.7047 21.4773 75.438 21.488 75.214 21.488H68.958V30H66.11ZM68.958 18.784H75.118C75.3207 18.784 75.55 18.7733 75.806 18.752C76.0727 18.7307 76.3233 18.6933 76.558 18.64C77.294 18.4693 77.8913 18.16 78.35 17.712C78.8193 17.2533 79.1607 16.72 79.374 16.112C79.5873 15.4933 79.694 14.864 79.694 14.224C79.694 13.584 79.5873 12.96 79.374 12.352C79.1607 11.7333 78.8193 11.1947 78.35 10.736C77.8913 10.2773 77.294 9.968 76.558 9.808C76.3233 9.744 76.0727 9.70667 75.806 9.696C75.55 9.67467 75.3207 9.664 75.118 9.664H68.958V18.784ZM84.8375 30V6.96H99.3975V9.664H87.6855V16.88H97.4775V19.584H87.6855V27.296H99.3975V30H84.8375ZM102.284 30V6.96H105.164V24.96L117.18 6.96H120.06V30H117.18V11.984L105.164 30H102.284ZM111.292 4.944C110.481 4.944 109.745 4.74667 109.084 4.352C108.433 3.95733 107.91 3.43467 107.516 2.784C107.121 2.12266 106.924 1.38666 106.924 0.575998H109.228C109.228 1.14133 109.43 1.62667 109.836 2.032C110.241 2.43733 110.726 2.64 111.292 2.64C111.868 2.64 112.353 2.43733 112.748 2.032C113.153 1.62667 113.356 1.14133 113.356 0.575998H115.66C115.66 1.38666 115.462 2.12266 115.068 2.784C114.684 3.43467 114.156 3.95733 113.484 4.352C112.822 4.74667 112.092 4.944 111.292 4.944ZM128.7 21.088V18.736H149.82V21.088H128.7ZM8.176 60V39.664H0.32V36.96H18.88V39.664H11.024V60H8.176ZM18.2425 60L25.9545 36.96H29.9225L37.6345 60H34.6745L27.4585 38.624H28.3545L21.2025 60H18.2425ZM21.9545 54.608V51.936H33.9225V54.608H21.9545ZM39.57 60V36.96H54.194V39.664H42.418V45.792H48.674C48.898 45.792 49.1647 45.8027 49.474 45.824C49.7833 45.8347 50.082 45.8613 50.37 45.904C51.586 46.0533 52.6153 46.4587 53.458 47.12C54.3113 47.7707 54.9567 48.5973 55.394 49.6C55.842 50.6027 56.066 51.7013 56.066 52.896C56.066 54.08 55.8473 55.1733 55.41 56.176C54.9727 57.1787 54.3273 58.0107 53.474 58.672C52.6313 59.3227 51.5967 59.728 50.37 59.888C50.082 59.92 49.7833 59.9467 49.474 59.968C49.1647 59.9893 48.898 60 48.674 60H39.57ZM42.418 57.296H48.578C48.7807 57.296 49.01 57.2853 49.266 57.264C49.5327 57.2427 49.7833 57.2107 50.018 57.168C51.1273 56.944 51.9273 56.416 52.418 55.584C52.9087 54.7413 53.154 53.8453 53.154 52.896C53.154 51.9253 52.9087 51.0293 52.418 50.208C51.9273 49.376 51.1273 48.848 50.018 48.624C49.7833 48.5707 49.5327 48.5387 49.266 48.528C49.01 48.5067 48.7807 48.496 48.578 48.496H42.418V57.296ZM61.8975 60L64.6495 54.288L56.5375 36.96H59.7215L66.1375 51.248L72.6975 36.96H75.7375L64.9855 60H61.8975ZM77.4313 60V36.96H86.5353C86.7593 36.96 87.0259 36.9707 87.3353 36.992C87.6446 37.0027 87.9433 37.0347 88.2313 37.088C89.4793 37.28 90.5246 37.7067 91.3673 38.368C92.2206 39.0293 92.8606 39.8667 93.2873 40.88C93.7139 41.8827 93.9273 42.9973 93.9273 44.224C93.9273 45.44 93.7086 46.5547 93.2713 47.568C92.8446 48.5707 92.2046 49.408 91.3513 50.08C90.5086 50.7413 89.4686 51.168 88.2313 51.36C87.9433 51.4027 87.6446 51.4347 87.3353 51.456C87.0259 51.4773 86.7593 51.488 86.5353 51.488H80.2793V60H77.4313ZM80.2793 48.784H86.4393C86.6419 48.784 86.8713 48.7733 87.1273 48.752C87.3939 48.7307 87.6446 48.6933 87.8793 48.64C88.6153 48.4693 89.2126 48.16 89.6713 47.712C90.1406 47.2533 90.4819 46.72 90.6953 46.112C90.9086 45.4933 91.0153 44.864 91.0153 44.224C91.0153 43.584 90.9086 42.96 90.6953 42.352C90.4819 41.7333 90.1406 41.1947 89.6713 40.736C89.2126 40.2773 88.6153 39.968 87.8793 39.808C87.6446 39.744 87.3939 39.7067 87.1273 39.696C86.8713 39.6747 86.6419 39.664 86.4393 39.664H80.2793V48.784ZM113.935 60H111.055V41.984L99.0387 60H96.1587V36.96H99.0387V54.96L111.055 36.96H113.935V60ZM117.449 60V36.96H120.297V47.12H132.425V36.96H135.273V60H132.425V49.824H120.297V60H117.449ZM148.273 60.48C145.98 60.48 144.033 59.9733 142.433 58.96C140.833 57.9467 139.612 56.5387 138.769 54.736C137.937 52.9333 137.521 50.848 137.521 48.48C137.521 46.112 137.937 44.0267 138.769 42.224C139.612 40.4213 140.833 39.0133 142.433 38C144.033 36.9867 145.98 36.48 148.273 36.48C150.94 36.48 153.132 37.1573 154.849 38.512C156.577 39.8667 157.767 41.6907 158.417 43.984L155.521 44.752C155.052 43.0347 154.215 41.68 153.009 40.688C151.804 39.696 150.225 39.2 148.273 39.2C146.556 39.2 145.127 39.5893 143.985 40.368C142.844 41.1467 141.985 42.2347 141.409 43.632C140.833 45.0187 140.54 46.6347 140.529 48.48C140.519 50.3147 140.801 51.9307 141.377 53.328C141.953 54.7147 142.817 55.8027 143.969 56.592C145.121 57.3707 146.556 57.76 148.273 57.76C150.225 57.76 151.804 57.264 153.009 56.272C154.215 55.2693 155.052 53.9147 155.521 52.208L158.417 52.976C157.767 55.2587 156.577 57.0827 154.849 58.448C153.132 59.8027 150.94 60.48 148.273 60.48ZM160.966 60V36.96H163.814V47.776L173.894 36.96H177.478L167.014 48.144L178.294 60H174.614L163.814 48.736V60H160.966ZM197.345 60H194.465V41.984L182.449 60H179.569V36.96H182.449V54.96L194.465 36.96H197.345V60ZM200.859 60V36.96H203.739V54.96L215.755 36.96H218.635V60H215.755V41.984L203.739 60H200.859ZM209.867 34.944C209.056 34.944 208.32 34.7467 207.659 34.352C207.008 33.9573 206.485 33.4347 206.091 32.784C205.696 32.1227 205.499 31.3867 205.499 30.576H207.803C207.803 31.1413 208.005 31.6267 208.411 32.032C208.816 32.4373 209.301 32.64 209.867 32.64C210.443 32.64 210.928 32.4373 211.323 32.032C211.728 31.6267 211.931 31.1413 211.931 30.576H214.235C214.235 31.3867 214.037 32.1227 213.643 32.784C213.259 33.4347 212.731 33.9573 212.059 34.352C211.397 34.7467 210.667 34.944 209.867 34.944Z" fill="white"/>
</svg>
