<svg width="42" height="42" viewBox="0 0 42 42" fill="none" xmlns="http://www.w3.org/2000/svg">
<path fill-rule="evenodd" clip-rule="evenodd" d="M18.9167 2.24984C18.9167 1.09924 19.8495 0.166504 21.0001 0.166504C22.1507 0.166504 23.0834 1.09924 23.0834 2.24984L23.0834 18.9165H39.7501C40.9007 18.9165 41.8334 19.8492 41.8334 20.9998C41.8334 22.1504 40.9007 23.0832 39.7501 23.0832H23.0834L23.0834 39.7498C23.0834 40.9004 22.1507 41.8332 21.0001 41.8332C19.8495 41.8332 18.9168 40.9004 18.9168 39.7498L18.9168 23.0832H2.25008C1.09949 23.0832 0.166748 22.1504 0.166748 20.9998C0.166748 19.8492 1.09949 18.9165 2.25008 18.9165H18.9167L18.9167 2.24984Z" fill="#242C3C"/>
</svg>
